<svg width="100" height="100" viewBox="0 0 100 100" fill="none" xmlns="http://www.w3.org/2000/svg">
  <rect x="10" y="10" width="80" height="80" rx="18" ry="18" fill="black"/>
  <g transform="translate(50,50) scale(0.8) rotate(-30) translate(-50,-50)" >
    <path 
      d="M 88.57 50.00L 88.54 49.34L 88.44 48.68L 88.27 48.03L 88.03 47.39L 87.73 46.77L 87.37 46.17L 86.94 45.60L 86.45 45.05L 85.90 44.53L 85.30 44.05L 84.64 43.60L 83.93 43.20L 83.17 42.84L 82.36 42.53L 81.51 42.27L 80.62 42.06L 79.70 41.90L 78.74 41.80L 77.76 41.76L 76.75 41.78L 75.72 41.86L 74.67 42.00L 73.62 42.20L 72.55 42.46L 71.48 42.79L 70.41 43.18L 69.34 43.63L 68.29 44.14L 67.24 44.71L 66.22 45.34L 65.21 46.03L 64.23 46.77L 63.27 47.57L 62.35 48.42L 61.46 49.31L 60.62 50.25L 59.81 51.24L 59.04 52.27L 58.33 53.33L 57.66 54.42L 57.05 55.55L 56.48 56.70L 55.98 57.87L 55.53 59.07L 55.14 60.27L 54.80 61.49L 54.53 62.71L 54.32 63.94L 54.17 65.16L 54.07 66.37L 54.04 67.58L 54.07 68.77L 54.15 69.94L 54.30 71.09L 54.50 72.21L 54.75 73.30L 55.05 74.35L 55.41 75.37L 55.81 76.34L 56.26 77.28L 56.74 78.16L 57.27 78.99L 57.84 79.77L 58.43 80.49L 59.06 81.16L 59.71 81.76L 60.38 82.30L 61.07 82.78L 61.78 83.20L 62.49 83.55L 63.21 83.83L 63.94 84.04L 64.66 84.19L 65.37 84.28L 66.07 84.29L 66.76 84.24L 67.43 84.13L 68.08 83.95L 68.70 83.71L 69.29 83.41L 69.84 83.04L 70.36 82.63L 70.84 82.16L 71.27 81.64L 71.66 81.06L 72.00 80.45L 72.28 79.79L 72.52 79.09L 72.69 78.36L 72.81 77.59L 72.86 76.80L 72.85 75.98L 72.78 75.14L 72.65 74.29L 72.45 73.42L 72.19 72.55L 71.86 71.67L 71.47 70.79L 71.01 69.92L 70.49 69.05L 69.91 68.20L 69.27 67.37L 68.56 66.55L 67.80 65.76L 66.98 65.00L 66.11 64.26L 65.19 63.57L 64.22 62.91L 63.20 62.29L 62.14 61.72L 61.04 61.19L 59.91 60.71L 58.74 60.28L 57.55 59.90L 56.33 59.58L 55.09 59.32L 53.83 59.11L 52.56 58.97L 51.28 58.88L 50.00 58.85L 48.72 58.88L 47.44 58.97L 46.17 59.11L 44.91 59.32L 43.67 59.58L 42.45 59.90L 41.26 60.28L 40.09 60.71L 38.96 61.19L 37.86 61.72L 36.80 62.29L 35.78 62.91L 34.81 63.57L 33.89 64.26L 33.02 65.00L 32.20 65.76L 31.44 66.55L 30.73 67.37L 30.09 68.20L 29.51 69.05L 28.99 69.92L 28.53 70.79L 28.14 71.67L 27.81 72.55L 27.55 73.42L 27.35 74.29L 27.22 75.14L 27.15 75.98L 27.14 76.80L 27.19 77.59L 27.31 78.36L 27.48 79.09L 27.72 79.79L 28.00 80.45L 28.34 81.06L 28.73 81.64L 29.16 82.16L 29.64 82.63L 30.16 83.04L 30.71 83.41L 31.30 83.71L 31.92 83.95L 32.57 84.13L 33.24 84.24L 33.93 84.29L 34.63 84.28L 35.34 84.19L 36.06 84.04L 36.79 83.83L 37.51 83.55L 38.22 83.20L 38.93 82.78L 39.62 82.30L 40.29 81.76L 40.94 81.16L 41.57 80.49L 42.16 79.77L 42.73 78.99L 43.26 78.16L 43.74 77.28L 44.19 76.34L 44.59 75.37L 44.95 74.35L 45.25 73.30L 45.50 72.21L 45.70 71.09L 45.85 69.94L 45.93 68.77L 45.96 67.58L 45.93 66.37L 45.83 65.16L 45.68 63.94L 45.47 62.71L 45.20 61.49L 44.86 60.27L 44.47 59.07L 44.02 57.87L 43.52 56.70L 42.95 55.55L 42.34 54.42L 41.67 53.33L 40.96 52.27L 40.19 51.24L 39.38 50.25L 38.54 49.31L 37.65 48.42L 36.73 47.57L 35.77 46.77L 34.79 46.03L 33.78 45.34L 32.76 44.71L 31.71 44.14L 30.66 43.63L 29.59 43.18L 28.52 42.79L 27.45 42.46L 26.38 42.20L 25.33 42.00L 24.28 41.86L 23.25 41.78L 22.24 41.76L 21.26 41.80L 20.30 41.90L 19.38 42.06L 18.49 42.27L 17.64 42.53L 16.83 42.84L 16.07 43.20L 15.36 43.60L 14.70 44.05L 14.10 44.53L 13.55 45.05L 13.06 45.60L 12.63 46.17L 12.27 46.77L 11.97 47.39L 11.73 48.03L 11.56 48.68L 11.46 49.34L 11.43 50.00L 11.46 50.66L 11.56 51.32L 11.73 51.97L 11.97 52.61L 12.27 53.23L 12.63 53.83L 13.06 54.40L 13.55 54.95L 14.10 55.47L 14.70 55.95L 15.36 56.40L 16.07 56.80L 16.83 57.16L 17.64 57.47L 18.49 57.73L 19.38 57.94L 20.30 58.10L 21.26 58.20L 22.24 58.24L 23.25 58.22L 24.28 58.14L 25.33 58.00L 26.38 57.80L 27.45 57.54L 28.52 57.21L 29.59 56.82L 30.66 56.37L 31.71 55.86L 32.76 55.29L 33.78 54.66L 34.79 53.97L 35.77 53.23L 36.73 52.43L 37.65 51.58L 38.54 50.69L 39.38 49.75L 40.19 48.76L 40.96 47.73L 41.67 46.67L 42.34 45.58L 42.95 44.45L 43.52 43.30L 44.02 42.13L 44.47 40.93L 44.86 39.73L 45.20 38.51L 45.47 37.29L 45.68 36.06L 45.83 34.84L 45.93 33.63L 45.96 32.42L 45.93 31.23L 45.85 30.06L 45.70 28.91L 45.50 27.79L 45.25 26.70L 44.95 25.65L 44.59 24.63L 44.19 23.66L 43.74 22.72L 43.26 21.84L 42.73 21.01L 42.16 20.23L 41.57 19.51L 40.94 18.84L 40.29 18.24L 39.62 17.70L 38.93 17.22L 38.22 16.80L 37.51 16.45L 36.79 16.17L 36.06 15.96L 35.34 15.81L 34.63 15.72L 33.93 15.71L 33.24 15.76L 32.57 15.87L 31.92 16.05L 31.30 16.29L 30.71 16.59L 30.16 16.96L 29.64 17.37L 29.16 17.84L 28.73 18.36L 28.34 18.94L 28.00 19.55L 27.72 20.21L 27.48 20.91L 27.31 21.64L 27.19 22.41L 27.14 23.20L 27.15 24.02L 27.22 24.86L 27.35 25.71L 27.55 26.58L 27.81 27.45L 28.14 28.33L 28.53 29.21L 28.99 30.08L 29.51 30.95L 30.09 31.80L 30.73 32.63L 31.44 33.45L 32.20 34.24L 33.02 35.00L 33.89 35.74L 34.81 36.43L 35.78 37.09L 36.80 37.71L 37.86 38.28L 38.96 38.81L 40.09 39.29L 41.26 39.72L 42.45 40.10L 43.67 40.42L 44.91 40.68L 46.17 40.89L 47.44 41.03L 48.72 41.12L 50.00 41.15L 51.28 41.12L 52.56 41.03L 53.83 40.89L 55.09 40.68L 56.33 40.42L 57.55 40.10L 58.74 39.72L 59.91 39.29L 61.04 38.81L 62.14 38.28L 63.20 37.71L 64.22 37.09L 65.19 36.43L 66.11 35.74L 66.98 35.00L 67.80 34.24L 68.56 33.45L 69.27 32.63L 69.91 31.80L 70.49 30.95L 71.01 30.08L 71.47 29.21L 71.86 28.33L 72.19 27.45L 72.45 26.58L 72.65 25.71L 72.78 24.86L 72.85 24.02L 72.86 23.20L 72.81 22.41L 72.69 21.64L 72.52 20.91L 72.28 20.21L 72.00 19.55L 71.66 18.94L 71.27 18.36L 70.84 17.84L 70.36 17.37L 69.84 16.96L 69.29 16.59L 68.70 16.29L 68.08 16.05L 67.43 15.87L 66.76 15.76L 66.07 15.71L 65.37 15.72L 64.66 15.81L 63.94 15.96L 63.21 16.17L 62.49 16.45L 61.78 16.80L 61.07 17.22L 60.38 17.70L 59.71 18.24L 59.06 18.84L 58.43 19.51L 57.84 20.23L 57.27 21.01L 56.74 21.84L 56.26 22.72L 55.81 23.66L 55.41 24.63L 55.05 25.65L 54.75 26.70L 54.50 27.79L 54.30 28.91L 54.15 30.06L 54.07 31.23L 54.04 32.42L 54.07 33.63L 54.17 34.84L 54.32 36.06L 54.53 37.29L 54.80 38.51L 55.14 39.73L 55.53 40.93L 55.98 42.13L 56.48 43.30L 57.05 44.45L 57.66 45.58L 58.33 46.67L 59.04 47.73L 59.81 48.76L 60.62 49.75L 61.46 50.69L 62.35 51.58L 63.27 52.43L 64.23 53.23L 65.21 53.97L 66.22 54.66L 67.24 55.29L 68.29 55.86L 69.34 56.37L 70.41 56.82L 71.48 57.21L 72.55 57.54L 73.62 57.80L 74.67 58.00L 75.72 58.14L 76.75 58.22L 77.76 58.24L 78.74 58.20L 79.70 58.10L 80.62 57.94L 81.51 57.73L 82.36 57.47L 83.17 57.16L 83.93 56.80L 84.64 56.40L 85.30 55.95L 85.90 55.47L 86.45 54.95L 86.94 54.40L 87.37 53.83L 87.73 53.23L 88.03 52.61L 88.27 51.97L 88.44 51.32L 88.54 50.66L 88.57 50.00" 
      stroke="white" 
      stroke-linecap="round" 
      stroke-linejoin="round" 
      stroke-width="4" />
  </g>
</svg>
